<svg width="36" height="40" viewBox="0 0 36 40" fill="none" xmlns="http://www.w3.org/2000/svg">
<path fill-rule="evenodd" clip-rule="evenodd" d="M6.77812 7.35321C6.38376 7.35321 6 7.63984 6 8.34876L6 17.1353C6 18.232 6.40228 19.3639 7.26892 20.3021L18.7707 32.7545C19.6541 33.5907 20.8619 33.5032 21.5223 32.7883L29.4645 24.1897C30.2285 23.244 30.1443 21.9873 29.4105 21.2724C29.391 21.2533 29.3719 21.2337 29.3533 21.2136L17.8203 8.72742C17.7968 8.70193 17.774 8.6756 17.7521 8.64847C17.0788 7.81546 16.09 7.35321 14.8939 7.35321L6.77812 7.35321ZM3 8.34876C3 5.97468 4.6096 4.10321 6.77812 4.10321L14.8939 4.10321C16.8131 4.10321 18.6561 4.86056 19.974 6.46433L31.4485 18.8872C33.5225 20.9424 33.4359 24.2692 31.6706 26.3927C31.653 26.4139 31.6349 26.4346 31.6163 26.4547L23.6429 35.0871C21.7469 37.1398 18.7006 37.0577 16.7385 35.1459C16.7189 35.1268 16.6999 35.1072 16.6813 35.0871L5.14827 22.6009C3.73678 21.0728 3 19.1217 3 17.1353L3 8.34876Z" fill="black" fill-opacity="0.4"/>
<path d="M13.3641 15.386C14.1997 14.4807 14.1997 13.0129 13.3641 12.1076C12.5284 11.2023 11.1735 11.2023 10.3378 12.1076C9.50215 13.0129 9.50215 14.4807 10.3378 15.386C11.1735 16.2913 12.5284 16.2913 13.3641 15.386Z" fill="black" fill-opacity="0.4"/>
</svg>
