<svg width="36" height="39" viewBox="0 0 36 39" fill="none" xmlns="http://www.w3.org/2000/svg">
<path fill-rule="evenodd" clip-rule="evenodd" d="M6.77818 6.50046C6.38382 6.50046 6.00006 6.78709 6.00006 7.49601L6.00006 16.2826C6.00006 17.3792 6.40234 18.5111 7.26898 19.4494L18.7707 31.9017C19.6541 32.738 20.862 32.6505 21.5223 31.9355L29.4645 23.3369C30.2285 22.3913 30.1443 21.1346 29.4106 20.4196C29.391 20.4006 29.372 20.381 29.3534 20.3608L17.8204 7.87467C17.7968 7.84918 17.7741 7.82285 17.7521 7.79571C17.0789 6.96271 16.0901 6.50046 14.894 6.50046L6.77818 6.50046ZM3.00006 7.49601C3.00006 5.12193 4.60966 3.25046 6.77818 3.25046L14.894 3.25046C16.8131 3.25046 18.6562 4.0078 19.974 5.61158L31.4485 18.0344C33.5226 20.0897 33.4359 23.4165 31.6707 25.54C31.6531 25.5611 31.635 25.5818 31.6164 25.6019L23.643 34.2344C21.747 36.2871 18.7006 36.205 16.7385 34.2931C16.719 34.2741 16.6999 34.2545 16.6813 34.2344L5.14833 21.7482C3.73684 20.22 3.00006 18.2689 3.00006 16.2826L3.00006 7.49601Z" fill="black" fill-opacity="0.4"/>
<path d="M13.3641 14.5333C14.1997 13.6279 14.1997 12.1601 13.3641 11.2548C12.5284 10.3495 11.1735 10.3495 10.3378 11.2548C9.50215 12.1601 9.50215 13.6279 10.3378 14.5333C11.1735 15.4386 12.5284 15.4386 13.3641 14.5333Z" fill="black" fill-opacity="0.4"/>
</svg>
