<svg width="36" height="39" viewBox="0 0 36 39" fill="none" xmlns="http://www.w3.org/2000/svg">
<path fill-rule="evenodd" clip-rule="evenodd" d="M19.1142 6.88279C18.4098 6.37275 17.5901 6.37275 16.8857 6.88279L16.8601 6.90089L7.59145 13.3198C6.56727 14.0277 5.99994 15.2491 5.99994 16.4731L5.99994 30.1864C5.99994 31.481 6.94383 32.5003 8.1268 32.5003L27.8731 32.5003C29.056 32.5003 29.9999 31.481 29.9999 30.1864L29.9999 16.4731C29.9999 15.2073 29.3818 14.0725 28.3793 13.2996L19.1398 6.90089L19.1142 6.88279ZM20.7674 4.17077C19.0609 2.94342 16.939 2.94342 15.2324 4.17078L5.97678 10.5807C5.97657 10.5809 5.97699 10.5806 5.97678 10.5807C4.04613 11.9154 2.99994 14.1961 2.99994 16.4731L2.99994 30.1864C2.99994 33.2683 5.27993 35.7503 8.1268 35.7503L27.8731 35.7503C30.7199 35.7503 32.9999 33.2683 32.9999 30.1864L32.9999 16.4731C32.9999 13.9562 31.7475 11.8898 30.078 10.6205C30.0603 10.6071 30.0424 10.5941 30.0243 10.5816L20.7674 4.17077Z" fill="black" fill-opacity="0.4"/>
</svg>
