<svg width="36" height="40" viewBox="0 0 36 40" fill="none" xmlns="http://www.w3.org/2000/svg">
<path fill-rule="evenodd" clip-rule="evenodd" d="M19.1143 7.73556C18.4098 7.22552 17.5902 7.22552 16.8857 7.73556L16.8602 7.75365L7.59151 14.1726C6.56733 14.8804 6 16.1019 6 17.3259L6 31.0391C6 32.3338 6.94389 33.353 8.12687 33.353L27.8731 33.353C29.0561 33.353 30 32.3338 30 31.0391L30 17.3259C30 16.0601 29.3819 14.9252 28.3793 14.1524L19.1398 7.75365L19.1143 7.73556ZM20.7675 5.02354C19.0609 3.79619 16.939 3.79619 15.2325 5.02355L5.97684 11.4335C5.97663 11.4336 5.97705 11.4334 5.97684 11.4335C4.04619 12.7681 3 15.0489 3 17.3259L3 31.0391C3 34.121 5.27999 36.603 8.12687 36.603L27.8731 36.603C30.72 36.603 33 34.121 33 31.0391L33 17.3259C33 14.809 31.7476 12.7425 30.078 11.4733C30.0604 11.4599 30.0425 11.4469 30.0243 11.4343L20.7675 5.02354Z" fill="black" fill-opacity="0.4"/>
</svg>
