<svg width="36" height="39" viewBox="0 0 36 39" fill="none" xmlns="http://www.w3.org/2000/svg">
<path fill-rule="evenodd" clip-rule="evenodd" d="M15.0217 3.76367C16.8247 2.74579 19.0256 2.74579 20.8286 3.76367C20.8421 3.7713 20.8555 3.77915 20.8688 3.78721L30.1503 9.41572C31.9818 10.46 33.0001 12.3468 33.0001 14.394L33.0001 24.7589C33.0001 26.7385 32.0329 28.6777 30.2755 29.5999L21.0188 35.2133C21.0055 35.2214 20.9921 35.2292 20.9786 35.2369C19.1756 36.2547 16.9747 36.2547 15.1717 35.2369C15.1581 35.2292 15.1447 35.2214 15.1314 35.2133L5.84988 29.5848C4.01838 28.5405 3.00012 26.6537 3.00012 24.6065L3.00012 14.394C3.00012 12.3486 4.01652 10.4635 5.84487 9.41861L14.9722 3.79285C14.9885 3.78281 15.005 3.77308 15.0217 3.76367ZM16.5011 6.41597L7.37804 12.0391C7.36174 12.0491 7.34525 12.0589 7.32859 12.0683C6.47379 12.5508 6.00012 13.4009 6.00012 14.394L6.00012 24.6065C6.00012 25.5996 6.47379 26.4497 7.32859 26.9323C7.34211 26.9399 7.35552 26.9477 7.36881 26.9558L16.6469 32.5822C17.5344 33.0749 18.6159 33.0749 19.5034 32.5822L28.7814 26.9558C28.8134 26.9364 28.846 26.9183 28.8793 26.9014C29.4874 26.5924 30.0001 25.8075 30.0001 24.7589L30.0001 14.394C30.0001 13.4009 29.5265 12.5508 28.6717 12.0683C28.6581 12.0606 28.6447 12.0528 28.6314 12.0447L19.3534 6.41832C18.4673 5.92636 17.3878 5.92557 16.5011 6.41597ZM18.0001 16.3755C16.2604 16.3755 14.8501 17.8086 14.8501 19.5765C14.8501 21.3443 16.2604 22.7774 18.0001 22.7774C19.7398 22.7774 21.1501 21.3443 21.1501 19.5765C21.1501 17.8086 19.7398 16.3755 18.0001 16.3755ZM11.8501 19.5765C11.8501 16.125 14.6036 13.327 18.0001 13.327C21.3967 13.327 24.1501 16.125 24.1501 19.5765C24.1501 23.0279 21.3967 25.8259 18.0001 25.8259C14.6036 25.8259 11.8501 23.0279 11.8501 19.5765Z" fill="url(#paint0_linear_142_276)"/>
<defs>
<linearGradient id="paint0_linear_142_276" x1="18.0001" y1="3.00026" x2="18.0001" y2="36.0003" gradientUnits="userSpaceOnUse">
<stop stop-color="#32CEFF"/>
<stop offset="1" stop-color="#3640B9"/>
</linearGradient>
</defs>
</svg>
