<svg width="36" height="40" viewBox="0 0 36 40" fill="none" xmlns="http://www.w3.org/2000/svg">
<path fill-rule="evenodd" clip-rule="evenodd" d="M15.0217 4.61641C16.8247 3.59853 19.0256 3.59853 20.8286 4.61641C20.8421 4.62404 20.8555 4.63189 20.8688 4.63995L30.1503 10.2685C31.9818 11.3127 33.0001 13.1995 33.0001 15.2468L33.0001 25.6117C33.0001 27.5912 32.0329 29.5304 30.2755 30.4526L21.0188 36.066C21.0055 36.0741 20.9921 36.082 20.9786 36.0896C19.1756 37.1075 16.9747 37.1075 15.1717 36.0896C15.1581 36.082 15.1447 36.0741 15.1314 36.066L5.84988 30.4375C4.01838 29.3933 3.00012 27.5065 3.00012 25.4592L3.00012 15.2468C3.00012 13.2014 4.01652 11.3162 5.84487 10.2713L14.9722 4.64559C14.9885 4.63554 15.005 4.62581 15.0217 4.61641ZM16.5011 7.2687L7.37804 12.8918C7.36174 12.9019 7.34525 12.9116 7.32859 12.921C6.47379 13.4036 6.00012 14.2536 6.00012 15.2468L6.00012 25.4592C6.00012 26.4524 6.47379 27.3024 7.32859 27.785C7.34211 27.7926 7.35552 27.8005 7.36881 27.8085L16.6469 33.435C17.5344 33.9277 18.6159 33.9277 19.5034 33.4349L28.7814 27.8085C28.8134 27.7892 28.846 27.771 28.8793 27.7541C29.4874 27.4451 30.0001 26.6602 30.0001 25.6117L30.0001 15.2468C30.0001 14.2536 29.5265 13.4036 28.6717 12.921C28.6581 12.9134 28.6447 12.9055 28.6314 12.8975L19.3534 7.27105C18.4673 6.77909 17.3878 6.77831 16.5011 7.2687ZM18.0001 17.2283C16.2604 17.2283 14.8501 18.6614 14.8501 20.4292C14.8501 22.197 16.2604 23.6301 18.0001 23.6301C19.7398 23.6301 21.1501 22.197 21.1501 20.4292C21.1501 18.6614 19.7398 17.2283 18.0001 17.2283ZM11.8501 20.4292C11.8501 16.9777 14.6036 14.1798 18.0001 14.1798C21.3967 14.1798 24.1501 16.9777 24.1501 20.4292C24.1501 23.8807 21.3967 26.6786 18.0001 26.6786C14.6036 26.6786 11.8501 23.8807 11.8501 20.4292Z" fill="url(#paint0_linear_51_995)"/>
<defs>
<linearGradient id="paint0_linear_51_995" x1="18.0001" y1="3.853" x2="18.0001" y2="36.853" gradientUnits="userSpaceOnUse">
<stop stop-color="#32CEFF"/>
<stop offset="1" stop-color="#3640B9"/>
</linearGradient>
</defs>
</svg>
